PathFileType	4	(X/Y/Z)	 s04c0301.trc
DataRate	CameraRate	NumFrames	NumMarkers	Units	OrigDataRate	OrigDataStartFrame	OrigNumFrames
200	200	7	50	mm	200	251	2000
Frame#	Time	racr			lacr			c7			jug			rlel			rdr			llel			ldr			s2			lic			ric			lasi			rasi			rpsi			lpsi			rgt			lgt			rth1			rth2			rth3			rth4			rlfc			rmfc			rsh1			rsh2			rsh3			rsh4			rlmal			rmmal			rcal			rtoe			rmt5			lth1			lth2			lth4			lth3			llfc			lmfc			lsh1			lsh2			lsh3			lsh4			llmal			lmmal			lcal			ltoe			lmt5			SBIKE			LBIKE			RBIKE			
		X1	Y1	Z1	X2	Y2	Z2	X3	Y3	Z3	X4	Y4	Z4	X5	Y5	Z5	X6	Y6	Z6	X7	Y7	Z7	X8	Y8	Z8	X9	Y9	Z9	X10	Y10	Z10	X11	Y11	Z11	X12	Y12	Z12	X13	Y13	Z13	X14	Y14	Z14	X15	Y15	Z15	X16	Y16	Z16	X17	Y17	Z17	X18	Y18	Z18	X19	Y19	Z19	X20	Y20	Z20	X21	Y21	Z21	X22	Y22	Z22	X23	Y23	Z23	X24	Y24	Z24	X25	Y25	Z25	X26	Y26	Z26	X27	Y27	Z27	X28	Y28	Z28	X29	Y29	Z29	X30	Y30	Z30	X31	Y31	Z31	X32	Y32	Z32	X33	Y33	Z33	X34	Y34	Z34	X35	Y35	Z35	X36	Y36	Z36	X37	Y37	Z37	X38	Y38	Z38	X39	Y39	Z39	X40	Y40	Z40	X41	Y41	Z41	X42	Y42	Z42	X43	Y43	Z43	X44	Y44	Z44	X45	Y45	Z45	X46	Y46	Z46	X47	Y47	Z47	X48	Y48	Z48	X49	Y49	Z49	X50	Y50	Z50	
251	1.2550	513.577942	1423.588818	-104.730202	520.937468	1429.969181	-391.698703	486.609629	1483.386247	-251.822001	500.402977	1334.871411	-255.829407	487.279839	1111.324256	-1.875725	696.957098	917.288207	-77.954750	503.268297	1149.527731	-511.664601	701.620702	929.569233	-449.960712	-57.793430	1200.852151	-258.045162	105.801587	1217.587658	-417.011450	108.668990	1171.561117	-101.015084	NaN	NaN	NaN	142.518979	1117.640346	-153.112614	-18.588194	1234.109565	-211.233921	-27.778403	1252.070824	-284.058650	48.863694	1113.738408	-92.437091	54.050811	1152.033822	-461.875560	119.252358	972.472708	-75.095467	172.600708	902.224952	-84.784822	186.556977	818.495262	-91.334366	204.351141	917.955951	-96.618836	238.360611	682.483926	-116.524030	218.370893	664.749534	-228.507074	184.908811	565.475377	-93.160889	174.894594	476.043388	-109.916466	121.382092	409.193369	-118.067855	205.995790	468.808995	-132.585359	75.999435	265.534189	-127.258452	97.447801	271.031145	-211.576846	2.443336	248.839385	-166.883906	292.177449	168.595633	-151.890513	220.472588	159.547098	-98.201128	120.525247	1094.143810	-471.176102	205.877460	1079.834029	-475.936003	221.004504	1111.216986	-463.882018	274.346499	1023.210656	-482.493479	405.765629	934.830724	-463.697702	438.596530	917.799290	-354.507680	366.499587	827.054673	-481.039766	340.795650	747.032015	-455.757652	277.405915	685.512962	-450.426060	365.869943	737.634661	-427.193808	194.048112	568.531423	-438.272683	191.526906	573.619000	-349.594718	110.897104	551.633648	-394.207056	409.436002	516.549901	-404.175819	335.919410	484.935428	-464.690137	-177.989936	938.179086	-280.366486	-3.430261	85.209743	-484.790681	-15.095542	80.291579	-84.381966	
252	1.2600	515.570782	1424.110907	-105.128209	523.134767	1431.100870	-391.257622	487.992978	1484.331971	-251.785034	501.721529	1335.497183	-256.166095	486.664507	1111.780970	-1.466288	695.887921	917.470460	-77.685013	503.172908	1150.986984	-512.173492	700.763048	930.272612	-449.817322	-57.168150	1203.393360	-256.839554	105.300155	1221.003586	-417.013212	110.177595	1173.242437	-101.098879	NaN	NaN	NaN	143.453267	1119.586555	-153.858982	-17.622485	1236.706564	-210.202669	-26.430415	1254.380909	-283.081021	49.922080	1115.346350	-92.632185	53.511741	1154.630687	-461.606708	118.994479	974.421384	-75.323808	171.891419	903.816728	-84.975935	185.374149	820.007763	-91.574289	203.787295	919.497426	-96.702810	236.281363	683.640028	-116.601088	216.140608	665.767488	-228.548575	184.036183	566.018573	-92.978698	175.184616	476.422965	-109.757233	122.538471	408.882477	-117.835168	206.384835	469.531083	-132.359150	78.981380	264.567186	-126.891376	100.508388	270.226125	-211.167102	5.588273	248.122355	-166.446358	295.270370	167.154268	-151.949494	223.572765	158.269730	-98.123118	120.049789	1096.163422	-471.079604	205.334344	1081.333737	-475.887780	220.683894	1112.703655	-464.152902	273.454089	1024.284378	-482.278830	404.225263	935.511494	-463.802144	437.266292	918.386835	-354.694439	364.492236	828.076125	-481.385281	338.651642	747.945039	-455.648825	274.925845	686.780728	-450.000540	363.854093	738.428444	-427.197671	191.425502	570.033572	-438.070678	189.031105	574.882106	-349.389116	108.419749	553.351487	-393.966581	406.765153	517.233613	-404.354734	332.857380	486.053463	-464.907508	-178.037729	938.161038	-280.368232	-3.478846	85.194283	-484.778686	-15.128108	80.308991	-84.390300	
253	1.2650	517.605275	1424.727136	-105.358163	525.311741	1432.338625	-390.890501	489.776948	1485.439507	-251.905438	503.270037	1336.217123	-256.586757	486.182820	1112.559761	-0.962400	694.855762	917.748447	-77.431895	503.653418	1152.622275	-512.669846	700.812014	930.750952	-450.431866	-56.503222	1206.362894	-255.733266	104.921879	1224.377361	-417.110585	111.830989	1175.147975	-101.326359	NaN	NaN	NaN	144.501782	1121.744791	-154.611868	-16.538743	1239.267447	-209.111983	-25.767425	1257.349147	-281.819842	51.363968	1117.462081	-92.509411	52.913875	1157.552613	-461.301755	118.894417	976.722307	-75.571082	171.341593	905.723682	-85.095136	184.180065	821.797644	-91.784850	203.241683	921.240258	-96.977595	234.181588	684.976870	-116.707723	213.539701	666.950215	-228.452999	183.224728	566.748095	-92.823949	175.460032	477.056339	-109.590048	123.678219	408.829689	-117.509160	206.684003	470.507395	-132.197492	81.895600	263.801379	-126.419624	103.628764	269.535464	-210.668967	8.698938	247.809423	-165.989467	298.242717	165.809925	-151.943875	226.584654	157.185673	-98.079236	119.552188	1098.451973	-470.974624	204.682199	1083.040814	-475.901562	220.271432	1114.437280	-464.483822	272.439942	1025.524176	-482.146392	402.589727	936.273312	-464.015806	435.802856	919.515115	-354.712180	362.547929	829.007552	-481.511560	336.571743	749.062847	-455.787846	272.659475	687.971945	-449.917840	361.835949	739.398655	-427.431075	188.979467	571.517746	-437.906650	186.635472	576.243555	-349.258796	105.689165	555.049721	-393.772609	404.214389	517.680469	-404.498443	330.194073	486.855067	-464.857406	-178.099519	938.141284	-280.365055	-3.516389	85.178922	-484.787863	-15.142458	80.296422	-84.365315	
254	1.2700	519.691481	1425.530769	-105.715203	527.569702	1433.549082	-390.610488	491.757528	1486.409474	-252.077619	504.981999	1337.114870	-257.358976	485.923851	1113.428585	-0.495128	693.966001	918.131002	-77.213229	504.681064	1154.269616	-513.117804	700.980977	931.627856	-451.118590	-55.672503	1209.583098	-254.400171	104.635264	1227.929955	-417.181790	113.595166	1177.265562	-101.514348	NaN	NaN	NaN	145.662805	1124.205901	-155.309095	-15.436610	1242.153634	-208.193185	-24.917263	1260.556317	-280.639517	52.972607	1119.966237	-92.421043	52.337014	1160.613790	-461.015011	118.891255	979.219312	-75.670218	170.860839	907.903110	-85.194420	183.101959	823.825397	-91.810482	202.734260	923.099433	-97.300488	232.038356	686.452607	-116.783110	210.860843	668.217234	-228.352800	182.303881	567.668344	-92.643325	175.631348	477.872410	-109.312244	124.731706	408.984040	-117.177935	206.958489	471.737886	-131.989482	84.741574	263.366565	-125.970211	106.692783	269.196770	-210.214395	11.812535	247.876745	-165.497079	301.018994	164.516946	-151.975688	229.440195	156.083395	-98.039624	118.981293	1100.943211	-470.892055	203.966673	1084.997273	-475.957248	219.775749	1116.367077	-464.774549	271.322580	1027.067474	-482.139818	400.942951	937.133796	-464.393157	434.457987	920.316352	-355.188645	360.705032	830.009751	-481.774753	334.545388	750.120907	-456.021511	270.579963	689.158209	-450.020827	359.936081	740.349960	-427.785024	186.796792	572.795219	-437.838966	184.525163	577.482151	-349.176551	102.765923	556.773594	-393.764917	401.866270	518.101992	-404.613017	327.676038	487.603072	-464.968104	-178.168718	938.122871	-280.383423	-3.540295	85.172577	-484.773119	-15.194370	80.291953	-84.368231	
255	1.2750	521.820790	1426.442490	-106.083536	529.902403	1434.874146	-390.347125	494.094248	1487.351813	-252.264178	506.865364	1337.954294	-257.654305	485.910789	1114.593669	-0.085189	693.329578	918.578693	-76.961396	506.308181	1155.883999	-513.592751	701.083314	932.083284	-451.201566	-54.738707	1213.193382	-253.269830	104.605311	1231.555814	-417.318375	115.490454	1179.584800	-101.873759	NaN	NaN	NaN	147.023075	1127.084505	-155.880359	-13.906355	1245.673568	-207.199878	-23.896945	1263.980748	-279.429805	54.710644	1122.714171	-92.248758	51.686102	1164.010292	-460.709242	119.188681	982.068467	-75.726427	170.534889	910.277250	-85.278602	181.933682	826.252189	-91.904067	202.392093	925.134593	-97.657322	229.926184	688.194620	-116.829851	208.107919	669.629197	-228.242749	181.284906	568.926632	-92.404811	175.759147	479.110195	-109.034166	125.719031	409.505108	-116.746836	207.131447	473.312943	-131.814787	87.441157	263.255109	-125.465668	109.359579	269.353309	-209.669089	14.706309	248.398256	-165.028059	303.544243	163.160231	-152.017555	231.982694	155.118127	-97.959311	118.287940	1103.664611	-470.817322	203.157926	1087.122966	-476.003639	219.357009	1118.461452	-464.966491	270.124158	1028.754136	-482.190044	399.178958	938.105358	-464.821181	433.145935	921.178441	-355.738748	358.905699	831.019511	-482.210440	332.695071	751.216116	-456.409687	268.601703	690.267934	-450.162969	358.170283	741.246589	-428.218152	184.819905	573.841122	-437.887018	182.622791	578.446328	-349.168233	100.770642	558.097400	-393.700355	399.820187	518.359388	-404.710207	325.467804	488.166990	-465.034949	-178.259278	938.109766	-280.524191	-3.584628	85.153301	-484.778609	-15.196794	80.278420	-84.356878	
256	1.2800	524.122015	1427.312676	-106.585342	532.433907	1436.058471	-390.171156	496.610421	1488.415837	-252.553440	508.759418	1338.869215	-258.298958	486.179666	1115.821319	0.315057	692.865422	918.993829	-76.719933	508.324134	1157.364554	-513.989055	700.808170	931.871896	-450.898997	-53.600273	1216.958749	-252.103096	104.680263	1235.269262	-417.365062	117.424095	1182.041062	-102.149995	NaN	NaN	NaN	148.475016	1130.094269	-156.384165	-12.350841	1248.767479	-206.020792	-22.664120	1267.767585	-278.334156	56.559558	1125.844835	-92.032769	51.023936	1167.583491	-460.371743	119.591028	985.207150	-75.791243	170.324466	913.041154	-85.423577	181.057594	828.703780	-91.978258	202.182060	927.565011	-98.092597	227.823468	690.134713	-116.933719	205.326595	671.291340	-228.117276	180.220879	570.514914	-92.200925	175.675607	480.621204	-108.738381	126.520859	410.441934	-116.370310	207.125911	475.169063	-131.603510	89.935254	263.518517	-124.975734	112.130403	269.621191	-209.118728	17.482275	249.332947	-164.543811	305.686758	161.823543	-152.100327	234.166864	154.459647	-97.907371	117.504350	1106.614748	-470.759097	202.245952	1089.448456	-476.110477	218.684918	1120.709591	-465.261789	268.694176	1030.502902	-482.094152	397.485472	938.992693	-465.383810	431.847426	922.003105	-356.411467	357.187664	831.900019	-482.829510	330.998654	752.128470	-456.944692	266.841175	691.275209	-450.534018	356.538388	742.151250	-428.844501	183.234176	574.588111	-438.002871	180.990779	579.314670	-349.388912	99.134100	558.981529	-393.857684	398.135981	518.665706	-404.858472	323.666978	488.619183	-465.172619	-178.341355	938.096987	-280.554740	-3.601688	85.161433	-484.786986	-15.242725	80.278251	-84.371021	
257	1.2850	526.608357	1428.255438	-107.129714	535.037481	1437.286003	-389.906820	499.373836	1489.302713	-252.791216	510.874969	1339.647252	-258.752645	486.729342	1117.143875	0.699757	692.671554	919.298494	-76.465855	510.435072	1158.739195	-514.498099	700.930282	932.160564	-450.894794	-52.342289	1220.835548	-251.019088	104.949198	1238.935476	-417.369009	119.447229	1184.699992	-102.555731	NaN	NaN	NaN	150.030070	1133.311687	-156.783598	-11.110596	1252.251687	-205.647790	-21.088682	1271.930535	-277.206748	58.559442	1129.285094	-91.755827	50.407097	1171.327302	-460.024277	120.203302	988.528290	-75.926098	170.299646	915.983947	-85.640401	180.150805	831.556819	-92.029968	202.108346	930.086992	-98.776056	225.795090	692.387896	-117.031760	202.606330	673.270834	-228.033061	179.057024	572.412522	-91.983140	175.509284	482.485034	-108.434646	127.046656	411.749305	-115.887065	206.917712	477.312804	-131.366664	92.082946	264.164088	-124.501901	114.584110	270.315428	-208.593084	19.889480	250.872285	-164.130132	307.421526	160.529122	-152.175122	235.910647	153.800723	-97.862296	116.645244	1109.736268	-470.670552	201.223325	1091.932683	-476.217141	217.937723	1123.086798	-465.581234	267.225808	1032.468374	-482.368231	395.728183	939.892320	-466.010850	430.559294	922.777761	-357.119224	355.579728	832.644366	-483.428836	329.483259	752.892706	-457.547156	265.333367	691.997402	-451.032845	355.081745	742.834709	-429.625016	181.928563	574.994302	-438.229868	179.627692	579.788322	-349.732611	97.797165	559.545940	-394.062032	396.791385	518.933408	-404.994113	322.361466	488.812458	-465.300735	-178.510958	938.069168	-280.260446	-3.631882	85.167043	-484.790986	-15.253590	80.279972	-84.345002	
